@startuml

[*] --> Idle 
Idle -> Config : begin_config
Config -> Idle : end_config
Idle -left-> Getset : begin_program
Getset -> Idle : discard

Getset --> Ready : end_program
Ready -> Run : run
Ready -up-> Idle : discard
Run -> Ready : completed
Run -> Pause : pause
Run -up-> Idle : discard
Pause -> Run: continue

Idle : motor: off
Idle : out: null
Idle : in: command
Getset : motor: off
Getset : out: null
Getset : in: step
Config : motor: off
Config : out: weight
Config : in: command
Ready : motor: off
Ready : out: weight
Ready : in: command
Run : motor: off
Run : out: null
Run : in: command
Pause : motor: off
Pause : out: null
Pause : in: command


@enduml